<?xml version="1.0" encoding="UTF-8"?>
<!DOCTYPE svg PUBLIC "-//W3C//DTD SVG 1.1//EN" "http://www.w3.org/Graphics/SVG/1.1/DTD/svg11.dtd">
<svg xmlns="http://www.w3.org/2000/svg" version="1.1" width="1200px" height="1200px" style="shape-rendering:geometricPrecision; text-rendering:geometricPrecision; image-rendering:optimizeQuality; fill-rule:evenodd; clip-rule:evenodd" xmlns:xlink="http://www.w3.org/1999/xlink">
<g><path style="opacity:0.998" fill="#f9eebd" d="M 564.5,-0.5 C 587.833,-0.5 611.167,-0.5 634.5,-0.5C 823.267,14.9401 974.1,97.9401 1087,248.5C 1153.94,343.153 1191.44,448.487 1199.5,564.5C 1199.5,587.833 1199.5,611.167 1199.5,634.5C 1187.17,797.975 1121.17,935.142 1001.5,1046C 961.033,1082.29 916.366,1112.45 867.5,1136.5C 865.251,1123.57 862.251,1110.91 858.5,1098.5C 857.815,1093.76 856.815,1089.09 855.5,1084.5C 860.613,1082.07 865.946,1079.9 871.5,1078C 874.503,1076.83 877.17,1075.17 879.5,1073C 877.109,1069.72 875.109,1066.22 873.5,1062.5C 885.371,1065.72 897.371,1066.22 909.5,1064C 911.997,1063.59 913.997,1062.42 915.5,1060.5C 897.308,1032.76 878.641,1005.43 859.5,978.5C 892.193,980.329 922.193,972.495 949.5,955C 961.147,946.184 970.48,935.351 977.5,922.5C 977.291,921.914 976.957,921.414 976.5,921C 929.508,921.167 882.508,920.834 835.5,920C 820.834,921.629 806.834,925.462 793.5,931.5C 787.24,930.115 780.907,929.115 774.5,928.5C 770.862,924.526 767.195,920.526 763.5,916.5C 854.471,894.007 945.471,871.341 1036.5,848.5C 1040.62,845.876 1043.45,842.21 1045,837.5C 1045.44,816.83 1045.94,796.163 1046.5,775.5C 1046.5,760.5 1046.5,745.5 1046.5,730.5C 1046.5,718.167 1046.5,705.833 1046.5,693.5C 1046.5,678.833 1046.5,664.167 1046.5,649.5C 1047.67,555.001 1047.83,460.334 1047,365.5C 1045.83,363 1044,361.167 1041.5,360C 986.449,349.319 931.449,338.486 876.5,327.5C 875.937,324.705 874.604,322.372 872.5,320.5C 928.113,331.889 983.78,342.889 1039.5,353.5C 1039.44,351.408 1038.44,349.908 1036.5,349C 985.429,317.603 934.096,286.603 882.5,256C 871.369,252.573 860.036,249.906 848.5,248C 818.153,242.231 787.82,236.397 757.5,230.5C 756.584,230.543 755.917,230.876 755.5,231.5C 750.717,228.301 745.383,226.468 739.5,226C 687.284,216.287 635.117,206.454 583,196.5C 582.235,196.57 581.735,196.903 581.5,197.5C 515.77,183.688 449.77,171.021 383.5,159.5C 384.468,162.044 386.135,164.211 388.5,166C 414.35,186.761 440.017,207.761 465.5,229C 470.301,233.125 475.635,236.458 481.5,239C 547.807,253.894 614.14,267.394 680.5,279.5C 684.994,282.65 688.328,286.65 690.5,291.5C 626.523,279.071 562.523,266.571 498.5,254C 487.318,251.251 476.651,252.585 466.5,258C 359.5,305 252.5,352 145.5,399C 143.622,400.543 142.122,402.376 141,404.5C 140.656,493.5 140.823,582.5 141.5,671.5C 142.146,732.164 142.646,792.831 143,853.5C 144.523,858.919 147.69,862.919 152.5,865.5C 155.719,867.718 159.386,868.885 163.5,869C 225.176,877.549 286.843,886.049 348.5,894.5C 348.244,901.224 348.577,907.891 349.5,914.5C 345.089,919.648 341.422,925.314 338.5,931.5C 330.566,943.028 323.899,955.361 318.5,968.5C 311.286,981.795 305.619,995.795 301.5,1010.5C 297.059,1022.84 293.392,1035.5 290.5,1048.5C 286.399,1062.58 283.399,1076.91 281.5,1091.5C 280.399,1096.77 279.733,1102.11 279.5,1107.5C 143.114,1019.21 54.9475,895.881 15,737.5C 7.20524,703.412 2.03857,669.079 -0.5,634.5C -0.5,611.167 -0.5,587.833 -0.5,564.5C 14.9401,375.733 97.9401,224.9 248.5,112C 343.153,45.0562 448.487,7.55618 564.5,-0.5 Z"/></g>
<g><path style="opacity:1" fill="#f7c20c" d="M 581.5,197.5 C 614.5,224.833 647.5,252.167 680.5,279.5C 614.14,267.394 547.807,253.894 481.5,239C 475.635,236.458 470.301,233.125 465.5,229C 440.017,207.761 414.35,186.761 388.5,166C 386.135,164.211 384.468,162.044 383.5,159.5C 449.77,171.021 515.77,183.688 581.5,197.5 Z"/></g>
<g><path style="opacity:1" fill="#fef9e5" d="M 581.5,197.5 C 581.735,196.903 582.235,196.57 583,196.5C 635.117,206.454 687.284,216.287 739.5,226C 745.383,226.468 750.717,228.301 755.5,231.5C 794.718,260.935 833.718,290.602 872.5,320.5C 874.604,322.372 875.937,324.705 876.5,327.5C 878.88,377.146 880.38,426.813 881,476.5C 879.274,477.576 877.441,477.743 875.5,477C 860.203,464.038 845.203,450.705 830.5,437C 828.547,435.367 826.38,434.201 824,433.5C 823.167,433.667 822.333,433.833 821.5,434C 809.507,444.168 796.841,453.335 783.5,461.5C 780.594,460.103 778.094,458.103 776,455.5C 765.185,442.717 754.018,430.217 742.5,418C 740.833,417.333 739.167,417.333 737.5,418C 724.135,427.346 710.468,436.179 696.5,444.5C 695.558,444.392 694.725,444.059 694,443.5C 692.417,392.848 691.25,342.182 690.5,291.5C 688.328,286.65 684.994,282.65 680.5,279.5C 647.5,252.167 614.5,224.833 581.5,197.5 Z"/></g>
<g><path style="opacity:1" fill="#f7c20d" d="M 755.5,231.5 C 755.917,230.876 756.584,230.543 757.5,230.5C 787.82,236.397 818.153,242.231 848.5,248C 860.036,249.906 871.369,252.573 882.5,256C 934.096,286.603 985.429,317.603 1036.5,349C 1038.44,349.908 1039.44,351.408 1039.5,353.5C 983.78,342.889 928.113,331.889 872.5,320.5C 833.718,290.602 794.718,260.935 755.5,231.5 Z"/></g>
<g><path style="opacity:1" fill="#f6c10c" d="M 690.5,291.5 C 691.25,342.182 692.417,392.848 694,443.5C 694.725,444.059 695.558,444.392 696.5,444.5C 710.468,436.179 724.135,427.346 737.5,418C 739.167,417.333 740.833,417.333 742.5,418C 754.018,430.217 765.185,442.717 776,455.5C 778.094,458.103 780.594,460.103 783.5,461.5C 796.841,453.335 809.507,444.168 821.5,434C 822.333,433.833 823.167,433.667 824,433.5C 826.38,434.201 828.547,435.367 830.5,437C 845.203,450.705 860.203,464.038 875.5,477C 877.441,477.743 879.274,477.576 881,476.5C 880.38,426.813 878.88,377.146 876.5,327.5C 931.449,338.486 986.449,349.319 1041.5,360C 1044,361.167 1045.83,363 1047,365.5C 1047.83,460.334 1047.67,555.001 1046.5,649.5C 1032.3,646.685 1017.97,643.852 1003.5,641C 997.789,639.833 992.456,640.667 987.5,643.5C 923.175,630.835 858.842,618.168 794.5,605.5C 803.499,594.998 812.332,584.332 821,573.5C 822.271,569.834 821.104,567.334 817.5,566C 801.133,563.717 784.8,561.217 768.5,558.5C 762.771,559.394 761.271,562.394 764,567.5C 772.056,579.383 779.89,591.383 787.5,603.5C 719.12,590.424 650.786,577.091 582.5,563.5C 579.475,558.655 575.142,555.488 569.5,554C 542.271,548.454 514.938,543.62 487.5,539.5C 487.667,453.499 487.5,367.499 487,281.5C 484.667,278.833 482.333,278.833 480,281.5C 479.5,367.499 479.333,453.499 479.5,539.5C 479.167,539.5 478.833,539.5 478.5,539.5C 471.369,540.426 464.369,541.926 457.5,544C 414.827,559.779 372.327,575.945 330,592.5C 329.667,562.167 329.333,531.833 329,501.5C 323.846,490.006 315.013,485.506 302.5,488C 295.911,490.921 291.411,495.754 289,502.5C 288.5,540.499 288.333,578.499 288.5,616.5C 275.578,621.696 262.578,626.696 249.5,631.5C 249.667,599.832 249.5,568.165 249,536.5C 243.602,522.816 233.769,517.65 219.5,521C 212.408,524.421 207.908,529.921 206,537.5C 205.5,574.498 205.333,611.498 205.5,648.5C 184.177,656.16 162.844,663.826 141.5,671.5C 140.823,582.5 140.656,493.5 141,404.5C 142.122,402.376 143.622,400.543 145.5,399C 252.5,352 359.5,305 466.5,258C 476.651,252.585 487.318,251.251 498.5,254C 562.523,266.571 626.523,279.071 690.5,291.5 Z"/></g>
<g><path style="opacity:1" fill="#e8b10c" d="M 259.5,264.5 C 297.221,272.233 334.888,280.4 372.5,289C 373.451,289.718 373.617,290.551 373,291.5C 297.896,326.137 222.396,359.804 146.5,392.5C 146.343,391.127 146.51,389.793 147,388.5C 180.667,350.833 214.333,313.167 248,275.5C 251.729,271.602 255.562,267.935 259.5,264.5 Z"/></g>
<g><path style="opacity:1" fill="#fdf8e6" d="M 487.5,539.5 C 484.833,539.5 482.167,539.5 479.5,539.5C 479.333,453.499 479.5,367.499 480,281.5C 482.333,278.833 484.667,278.833 487,281.5C 487.5,367.499 487.667,453.499 487.5,539.5 Z"/></g>
<g><path style="opacity:1" fill="#312d28" d="M 741.5,319.5 C 753.58,317.788 762.08,322.454 767,333.5C 767.948,347.902 767.615,362.235 766,376.5C 757.821,390.506 746.988,393.006 733.5,384C 730.836,381.331 729.002,378.164 728,374.5C 727.333,360.833 727.333,347.167 728,333.5C 730.687,326.981 735.187,322.314 741.5,319.5 Z"/></g>
<g><path style="opacity:1" fill="#312c26" d="M 570.5,330.5 C 578.964,329.233 586.631,331.066 593.5,336C 615.393,357.225 636.56,379.059 657,401.5C 661.248,423.211 652.415,433.377 630.5,432C 610.883,428.077 591.217,424.41 571.5,421C 557.478,415.788 552.311,405.954 556,391.5C 559.518,384.481 565.018,379.814 572.5,377.5C 569.481,373.647 565.981,370.313 562,367.5C 552.255,352.016 555.089,339.683 570.5,330.5 Z"/></g>
<g><path style="opacity:1" fill="#312d28" d="M 823.5,334.5 C 835.58,332.788 844.08,337.454 849,348.5C 849.948,362.902 849.615,377.235 848,391.5C 839.821,405.506 828.988,408.006 815.5,399C 812.836,396.331 811.002,393.164 810,389.5C 809.333,375.833 809.333,362.167 810,348.5C 812.687,341.981 817.187,337.314 823.5,334.5 Z"/></g>
<g><path style="opacity:1" fill="#f9d96b" d="M 309.5,367.5 C 310.5,367.5 311.5,367.5 312.5,367.5C 312.5,382.167 312.5,396.833 312.5,411.5C 302.045,415.098 291.712,419.098 281.5,423.5C 280.914,423.291 280.414,422.957 280,422.5C 279.333,408.833 279.333,395.167 280,381.5C 289.818,376.673 299.651,372.007 309.5,367.5 Z"/></g>
<g><path style="opacity:1" fill="#f9d96b" d="M 257.5,389.5 C 258.496,389.414 259.329,389.748 260,390.5C 260.667,404.167 260.667,417.833 260,431.5C 249.777,436.349 239.277,440.183 228.5,443C 227.178,429.563 227.178,416.063 228.5,402.5C 238.375,398.391 248.042,394.058 257.5,389.5 Z"/></g>
<g><path style="opacity:1" fill="#f9d96b" d="M 206.5,411.5 C 207.5,411.5 208.5,411.5 209.5,411.5C 209.667,424.837 209.5,438.171 209,451.5C 199.128,455.768 189.128,459.768 179,463.5C 178.228,463.355 177.561,463.022 177,462.5C 176.167,449.82 176.334,437.154 177.5,424.5C 187.352,420.338 197.019,416.004 206.5,411.5 Z"/></g>
<g><path style="opacity:1" fill="#302c26" d="M 976.5,414.5 C 989.434,412.384 998.934,417.051 1005,428.5C 1007.39,441.371 1002.89,450.871 991.5,457C 1003.01,462.19 1007.51,471.023 1005,483.5C 1001.11,493.456 993.773,498.79 983,499.5C 963.171,496.056 943.338,492.556 923.5,489C 910.17,484.186 904.67,474.686 907,460.5C 909.055,455.112 912.555,450.946 917.5,448C 937.334,436.97 957.001,425.803 976.5,414.5 Z"/></g>
<g><path style="opacity:1" fill="#312d26" d="M 376.5,463.5 C 381.901,462.966 386.901,464.133 391.5,467C 394.4,469.9 397.233,472.733 400,475.5C 406.717,472.483 413.717,470.483 421,469.5C 434.093,471.015 440.093,478.349 439,491.5C 437.703,498.798 433.536,503.631 426.5,506C 409.421,512.471 392.421,519.137 375.5,526C 369.038,527.865 364.538,525.698 362,519.5C 361.333,505.833 361.333,492.167 362,478.5C 364.996,471.672 369.829,466.672 376.5,463.5 Z"/></g>
<g><path style="opacity:1" fill="#2e2724" d="M 600.5,465.5 C 618.539,468.006 636.539,470.84 654.5,474C 665.667,477.167 672.833,484.333 676,495.5C 676.667,507.167 676.667,518.833 676,530.5C 670.145,548.017 657.979,555.85 639.5,554C 627.559,550.392 620.059,542.559 617,530.5C 616.667,521.833 616.333,513.167 616,504.5C 609,496.167 602,487.833 595,479.5C 593.025,473.177 594.858,468.51 600.5,465.5 Z"/></g>
<g><path style="opacity:1" fill="#302c27" d="M 478.5,539.5 C 478.816,553.912 478.482,568.245 477.5,582.5C 418.692,603.493 360.025,624.993 301.5,647C 295.569,648.925 291.402,647.092 289,641.5C 288.5,633.173 288.334,624.84 288.5,616.5C 288.333,578.499 288.5,540.499 289,502.5C 291.411,495.754 295.911,490.921 302.5,488C 315.013,485.506 323.846,490.006 329,501.5C 329.333,531.833 329.667,562.167 330,592.5C 372.327,575.945 414.827,559.779 457.5,544C 464.369,541.926 471.369,540.426 478.5,539.5 Z"/></g>
<g><path style="opacity:1" fill="#302c27" d="M 249.5,631.5 C 249.167,657.509 249.5,683.509 250.5,709.5C 322.592,682.303 394.925,655.803 467.5,630C 471.191,629.58 474.858,629.08 478.5,628.5C 478.5,643.167 478.5,657.833 478.5,672.5C 391.447,704.462 304.28,736.129 217,767.5C 211.95,766.789 208.283,764.122 206,759.5C 205.5,722.502 205.333,685.502 205.5,648.5C 205.333,611.498 205.5,574.498 206,537.5C 207.908,529.921 212.408,524.421 219.5,521C 233.769,517.65 243.602,522.816 249,536.5C 249.5,568.165 249.667,599.832 249.5,631.5 Z"/></g>
<g><path style="opacity:1" fill="#2e2724" d="M 913.5,527.5 C 930.547,529.542 947.547,532.042 964.5,535C 972.248,539.585 973.415,545.418 968,552.5C 961.667,557.167 955.333,561.833 949,566.5C 950.882,580.549 946.715,592.383 936.5,602C 921.166,610.989 907.666,608.822 896,595.5C 894.059,591.952 892.393,588.286 891,584.5C 890.333,573.167 890.333,561.833 891,550.5C 894.684,538.984 902.184,531.317 913.5,527.5 Z"/></g>
<g><path style="opacity:1" fill="#928f8c" d="M 478.5,539.5 C 478.833,539.5 479.167,539.5 479.5,539.5C 479.829,554.01 479.496,568.343 478.5,582.5C 478.167,582.5 477.833,582.5 477.5,582.5C 478.482,568.245 478.816,553.912 478.5,539.5 Z"/></g>
<g><path style="opacity:1" fill="#312d28" d="M 487.5,539.5 C 514.938,543.62 542.271,548.454 569.5,554C 575.142,555.488 579.475,558.655 582.5,563.5C 586.707,588.782 576.04,598.616 550.5,593C 529.847,589.026 509.18,585.193 488.5,581.5C 487.504,567.677 487.171,553.677 487.5,539.5 Z"/></g>
<g><path style="opacity:1" fill="#2f2825" d="M 794.5,605.5 C 791.812,605.834 789.479,605.168 787.5,603.5C 779.89,591.383 772.056,579.383 764,567.5C 761.271,562.394 762.771,559.394 768.5,558.5C 784.8,561.217 801.133,563.717 817.5,566C 821.104,567.334 822.271,569.834 821,573.5C 812.332,584.332 803.499,594.998 794.5,605.5 Z"/></g>
<g><path style="opacity:1" fill="#fef9e5" d="M 582.5,563.5 C 650.786,577.091 719.12,590.424 787.5,603.5C 789.479,605.168 791.812,605.834 794.5,605.5C 858.842,618.168 923.175,630.835 987.5,643.5C 977.891,650.569 975.057,659.903 979,671.5C 981.986,677.82 986.819,681.987 993.5,684C 1011.17,687.214 1028.84,690.381 1046.5,693.5C 1046.5,705.833 1046.5,718.167 1046.5,730.5C 1032.14,728.234 1017.81,725.734 1003.5,723C 996.779,721.48 990.779,722.813 985.5,727C 978.312,733.228 975.812,741.062 978,750.5C 980.013,757.181 984.18,762.014 990.5,765C 1009.09,768.918 1027.76,772.418 1046.5,775.5C 1045.94,796.163 1045.44,816.83 1045,837.5C 1043.45,842.21 1040.62,845.876 1036.5,848.5C 1037.04,845.348 1036.04,842.848 1033.5,841C 862.132,809.46 690.799,777.793 519.5,746C 505.987,742.878 492.32,741.545 478.5,742C 370.889,779.871 263.555,818.537 156.5,858C 153.603,859.715 152.269,862.215 152.5,865.5C 147.69,862.919 144.523,858.919 143,853.5C 142.646,792.831 142.146,732.164 141.5,671.5C 162.844,663.826 184.177,656.16 205.5,648.5C 205.333,685.502 205.5,722.502 206,759.5C 208.283,764.122 211.95,766.789 217,767.5C 304.28,736.129 391.447,704.462 478.5,672.5C 478.334,680.174 478.5,687.841 479,695.5C 482.523,699.701 485.523,699.368 488,694.5C 488.5,687.174 488.666,679.841 488.5,672.5C 510.842,676.501 533.175,680.667 555.5,685C 573.255,688.312 583.255,681.145 585.5,663.5C 584.817,654.65 580.484,648.15 572.5,644C 544.638,637.994 516.638,632.827 488.5,628.5C 488.5,612.833 488.5,597.167 488.5,581.5C 509.18,585.193 529.847,589.026 550.5,593C 576.04,598.616 586.707,588.782 582.5,563.5 Z"/></g>
<g><path style="opacity:1" fill="#f3f2f0" d="M 479.5,539.5 C 482.167,539.5 484.833,539.5 487.5,539.5C 487.171,553.677 487.504,567.677 488.5,581.5C 488.5,597.167 488.5,612.833 488.5,628.5C 487.167,643.167 487.167,657.833 488.5,672.5C 488.666,679.841 488.5,687.174 488,694.5C 485.523,699.368 482.523,699.701 479,695.5C 478.5,687.841 478.334,680.174 478.5,672.5C 478.5,657.833 478.5,643.167 478.5,628.5C 478.5,613.167 478.5,597.833 478.5,582.5C 479.496,568.343 479.829,554.01 479.5,539.5 Z"/></g>
<g><path style="opacity:1" fill="#fdf8e4" d="M 477.5,582.5 C 477.833,582.5 478.167,582.5 478.5,582.5C 478.5,597.833 478.5,613.167 478.5,628.5C 474.858,629.08 471.191,629.58 467.5,630C 394.925,655.803 322.592,682.303 250.5,709.5C 249.5,683.509 249.167,657.509 249.5,631.5C 262.578,626.696 275.578,621.696 288.5,616.5C 288.334,624.84 288.5,633.173 289,641.5C 291.402,647.092 295.569,648.925 301.5,647C 360.025,624.993 418.692,603.493 477.5,582.5 Z"/></g>
<g><path style="opacity:1" fill="#312d28" d="M 488.5,628.5 C 516.638,632.827 544.638,637.994 572.5,644C 580.484,648.15 584.817,654.65 585.5,663.5C 583.255,681.145 573.255,688.312 555.5,685C 533.175,680.667 510.842,676.501 488.5,672.5C 487.167,657.833 487.167,643.167 488.5,628.5 Z"/></g>
<g><path style="opacity:1" fill="#e84d2e" d="M 807.5,633.5 C 815.105,632.201 819.772,635.201 821.5,642.5C 820.82,645.36 819.487,647.86 817.5,650C 808.132,651.029 798.799,652.362 789.5,654C 775.932,657.468 762.598,661.634 749.5,666.5C 741.662,664.462 739.495,659.796 743,652.5C 746.081,649.707 749.581,647.54 753.5,646C 771.045,639.142 789.045,634.975 807.5,633.5 Z"/></g>
<g><path style="opacity:1" fill="#312d27" d="M 1046.5,649.5 C 1046.5,664.167 1046.5,678.833 1046.5,693.5C 1028.84,690.381 1011.17,687.214 993.5,684C 986.819,681.987 981.986,677.82 979,671.5C 975.057,659.903 977.891,650.569 987.5,643.5C 992.456,640.667 997.789,639.833 1003.5,641C 1017.97,643.852 1032.3,646.685 1046.5,649.5 Z"/></g>
<g><path style="opacity:1" fill="#312d28" d="M 1046.5,730.5 C 1046.5,745.5 1046.5,760.5 1046.5,775.5C 1027.76,772.418 1009.09,768.918 990.5,765C 984.18,762.014 980.013,757.181 978,750.5C 975.812,741.062 978.312,733.228 985.5,727C 990.779,722.813 996.779,721.48 1003.5,723C 1017.81,725.734 1032.14,728.234 1046.5,730.5 Z"/></g>
<g><path style="opacity:1" fill="#ccc1b0" d="M 1036.5,848.5 C 945.471,871.341 854.471,894.007 763.5,916.5C 742.375,895.368 718.708,877.701 692.5,863.5C 693.752,861.661 693.752,859.828 692.5,858C 666.785,843.537 639.452,833.204 610.5,827C 569.621,817.768 528.288,814.435 486.5,817C 443.735,820.734 405.069,835.067 370.5,860C 358.814,868.827 351.481,880.327 348.5,894.5C 286.843,886.049 225.176,877.549 163.5,869C 159.386,868.885 155.719,867.718 152.5,865.5C 152.269,862.215 153.603,859.715 156.5,858C 263.555,818.537 370.889,779.871 478.5,742C 492.32,741.545 505.987,742.878 519.5,746C 690.799,777.793 862.132,809.46 1033.5,841C 1036.04,842.848 1037.04,845.348 1036.5,848.5 Z"/></g>
<g><path style="opacity:1" fill="#f44431" d="M 692.5,863.5 C 643.289,860.504 595.289,866.671 548.5,882C 535.933,886.458 523.933,891.958 512.5,898.5C 494.127,909.347 476.127,920.68 458.5,932.5C 438.47,944.851 417.804,956.184 396.5,966.5C 386.546,971.54 376.046,974.873 365,976.5C 358.237,977.234 354.737,974.234 354.5,967.5C 357.379,955.204 356.712,943.204 352.5,931.5C 351.178,925.902 350.178,920.235 349.5,914.5C 348.577,907.891 348.244,901.224 348.5,894.5C 351.481,880.327 358.814,868.827 370.5,860C 405.069,835.067 443.735,820.734 486.5,817C 528.288,814.435 569.621,817.768 610.5,827C 639.452,833.204 666.785,843.537 692.5,858C 693.752,859.828 693.752,861.661 692.5,863.5 Z"/></g>
<g><path style="opacity:0.999" fill="#216dc6" d="M 692.5,863.5 C 718.708,877.701 742.375,895.368 763.5,916.5C 767.195,920.526 770.862,924.526 774.5,928.5C 782.987,938.809 790.987,949.476 798.5,960.5C 774.301,963.505 750.301,967.671 726.5,973C 721.542,977.17 720.208,982.337 722.5,988.5C 720.667,990.022 719.667,992.022 719.5,994.5C 725.301,1036.11 737.468,1075.77 756,1113.5C 759.221,1117.94 763.555,1120.28 769,1120.5C 799.36,1115.29 829.193,1107.95 858.5,1098.5C 862.251,1110.91 865.251,1123.57 867.5,1136.5C 854.044,1143.89 840.044,1150.23 825.5,1155.5C 790.194,1157.39 754.861,1157.89 719.5,1157C 712.753,1156.04 706.086,1154.7 699.5,1153C 696.898,1152.12 694.731,1150.62 693,1148.5C 690.202,1142.77 688.202,1136.77 687,1130.5C 676.516,1072.59 669.183,1014.26 665,955.5C 664.333,950.833 663.667,946.167 663,941.5C 658.172,937 655.005,938 653.5,944.5C 657.139,983.888 660.972,1023.22 665,1062.5C 645.446,1035.72 632.113,1006.05 625,973.5C 622.847,971.556 620.347,971.056 617.5,972C 616.056,973.126 615.39,974.626 615.5,976.5C 622.476,1007.94 634.976,1036.94 653,1063.5C 657.677,1069.01 662.51,1074.34 667.5,1079.5C 670.332,1095.48 673.165,1111.48 676,1127.5C 677.74,1136.46 680.407,1145.13 684,1153.5C 687.755,1158.3 692.588,1161.46 698.5,1163C 711.606,1166.44 724.939,1167.94 738.5,1167.5C 738.216,1169.41 738.549,1171.08 739.5,1172.5C 739.552,1176.2 739.886,1179.86 740.5,1183.5C 705.426,1191.46 670.093,1196.79 634.5,1199.5C 611.167,1199.5 587.833,1199.5 564.5,1199.5C 524.392,1196.6 484.726,1190.1 445.5,1180C 433.192,1176.76 421.192,1172.93 409.5,1168.5C 437.582,1169.07 465.582,1170.23 493.5,1172C 506.133,1166.9 510.966,1157.73 508,1144.5C 504.657,1138.08 499.491,1133.91 492.5,1132C 433.882,1128.97 375.215,1127.81 316.5,1128.5C 303.707,1122.27 291.373,1115.27 279.5,1107.5C 279.733,1102.11 280.399,1096.77 281.5,1091.5C 294.28,1088.38 307.28,1086.55 320.5,1086C 355.167,1085.33 389.833,1085.33 424.5,1086C 448.854,1086.58 473.188,1087.25 497.5,1088C 507.552,1083.4 512.052,1075.57 511,1064.5C 508.401,1056.23 502.901,1051.07 494.5,1049C 426.488,1044.7 358.488,1044.53 290.5,1048.5C 293.392,1035.5 297.059,1022.84 301.5,1010.5C 329.102,1008.04 356.769,1007.04 384.5,1007.5C 424.86,1007.71 465.194,1008.54 505.5,1010C 517.806,1003.89 521.64,994.39 517,981.5C 513.206,976.05 508.039,972.55 501.5,971C 466.344,969.412 431.344,967.912 396.5,966.5C 417.804,956.184 438.47,944.851 458.5,932.5C 474.834,933.334 491.167,933.834 507.5,934C 519.806,927.89 523.64,918.39 519,905.5C 517.306,902.642 515.139,900.309 512.5,898.5C 523.933,891.958 535.933,886.458 548.5,882C 595.289,866.671 643.289,860.504 692.5,863.5 Z"/></g>
<g><path style="opacity:1" fill="#2f2726" d="M 512.5,898.5 C 515.139,900.309 517.306,902.642 519,905.5C 523.64,918.39 519.806,927.89 507.5,934C 491.167,933.834 474.834,933.334 458.5,932.5C 476.127,920.68 494.127,909.347 512.5,898.5 Z"/></g>
<g><path style="opacity:1" fill="#332b29" d="M 349.5,914.5 C 350.178,920.235 351.178,925.902 352.5,931.5C 347.833,931.5 343.167,931.5 338.5,931.5C 341.422,925.314 345.089,919.648 349.5,914.5 Z"/></g>
<g><path style="opacity:1" fill="#d63815" d="M 859.5,978.5 C 850.732,967.898 841.066,958.065 830.5,949C 818.621,942.059 806.288,936.226 793.5,931.5C 806.834,925.462 820.834,921.629 835.5,920C 882.508,920.834 929.508,921.167 976.5,921C 976.957,921.414 977.291,921.914 977.5,922.5C 970.48,935.351 961.147,946.184 949.5,955C 922.193,972.495 892.193,980.329 859.5,978.5 Z"/></g>
<g><path style="opacity:1" fill="#f44532" d="M 774.5,928.5 C 780.907,929.115 787.24,930.115 793.5,931.5C 806.288,936.226 818.621,942.059 830.5,949C 841.066,958.065 850.732,967.898 859.5,978.5C 878.641,1005.43 897.308,1032.76 915.5,1060.5C 913.997,1062.42 911.997,1063.59 909.5,1064C 897.371,1066.22 885.371,1065.72 873.5,1062.5C 858.953,1031.74 843.12,1001.74 826,972.5C 822.446,967.612 818.279,963.446 813.5,960C 808.448,959.274 803.448,959.441 798.5,960.5C 790.987,949.476 782.987,938.809 774.5,928.5 Z"/></g>
<g><path style="opacity:1" fill="#276dc5" d="M 338.5,931.5 C 343.167,931.5 347.833,931.5 352.5,931.5C 356.712,943.204 357.379,955.204 354.5,967.5C 342.484,967.39 330.484,967.723 318.5,968.5C 323.899,955.361 330.566,943.028 338.5,931.5 Z"/></g>
<g><path style="opacity:0.996" fill="#f8fafd" d="M 825.5,1155.5 C 814.881,1160.3 803.881,1164.3 792.5,1167.5C 790.167,1167.5 787.833,1167.5 785.5,1167.5C 769.833,1167.5 754.167,1167.5 738.5,1167.5C 724.939,1167.94 711.606,1166.44 698.5,1163C 692.588,1161.46 687.755,1158.3 684,1153.5C 680.407,1145.13 677.74,1136.46 676,1127.5C 673.165,1111.48 670.332,1095.48 667.5,1079.5C 662.51,1074.34 657.677,1069.01 653,1063.5C 634.976,1036.94 622.476,1007.94 615.5,976.5C 615.39,974.626 616.056,973.126 617.5,972C 620.347,971.056 622.847,971.556 625,973.5C 632.113,1006.05 645.446,1035.72 665,1062.5C 660.972,1023.22 657.139,983.888 653.5,944.5C 655.005,938 658.172,937 663,941.5C 663.667,946.167 664.333,950.833 665,955.5C 669.183,1014.26 676.516,1072.59 687,1130.5C 688.202,1136.77 690.202,1142.77 693,1148.5C 694.731,1150.62 696.898,1152.12 699.5,1153C 706.086,1154.7 712.753,1156.04 719.5,1157C 754.861,1157.89 790.194,1157.39 825.5,1155.5 Z"/></g>
<g><path style="opacity:1" fill="#fefdfd" d="M 873.5,1062.5 C 875.109,1066.22 877.109,1069.72 879.5,1073C 877.17,1075.17 874.503,1076.83 871.5,1078C 865.946,1079.9 860.613,1082.07 855.5,1084.5C 832.418,1092.21 809.085,1099.04 785.5,1105C 778.579,1107.26 771.912,1106.93 765.5,1104C 756.017,1089.87 748.517,1074.7 743,1058.5C 739,1047.17 735,1035.83 731,1024.5C 727.644,1012.6 724.81,1000.6 722.5,988.5C 720.208,982.337 721.542,977.17 726.5,973C 750.301,967.671 774.301,963.505 798.5,960.5C 803.448,959.441 808.448,959.274 813.5,960C 818.279,963.446 822.446,967.612 826,972.5C 843.12,1001.74 858.953,1031.74 873.5,1062.5 Z"/></g>
<g><path style="opacity:1" fill="#2e2725" d="M 396.5,966.5 C 431.344,967.912 466.344,969.412 501.5,971C 508.039,972.55 513.206,976.05 517,981.5C 521.64,994.39 517.806,1003.89 505.5,1010C 465.194,1008.54 424.86,1007.71 384.5,1007.5C 356.769,1007.04 329.102,1008.04 301.5,1010.5C 305.619,995.795 311.286,981.795 318.5,968.5C 330.484,967.723 342.484,967.39 354.5,967.5C 354.737,974.234 358.237,977.234 365,976.5C 376.046,974.873 386.546,971.54 396.5,966.5 Z"/></g>
<g><path style="opacity:1" fill="#205aa0" d="M 722.5,988.5 C 724.81,1000.6 727.644,1012.6 731,1024.5C 735,1035.83 739,1047.17 743,1058.5C 748.517,1074.7 756.017,1089.87 765.5,1104C 771.912,1106.93 778.579,1107.26 785.5,1105C 809.085,1099.04 832.418,1092.21 855.5,1084.5C 856.815,1089.09 857.815,1093.76 858.5,1098.5C 829.193,1107.95 799.36,1115.29 769,1120.5C 763.555,1120.28 759.221,1117.94 756,1113.5C 737.468,1075.77 725.301,1036.11 719.5,994.5C 719.667,992.022 720.667,990.022 722.5,988.5 Z"/></g>
<g><path style="opacity:1" fill="#de4728" d="M 807.5,989.5 C 816.315,989.48 820.482,993.814 820,1002.5C 818.878,1004.62 817.378,1006.46 815.5,1008C 795.29,1012.91 774.956,1016.91 754.5,1020C 746.269,1013.09 746.602,1006.76 755.5,1001C 772.937,997.082 790.271,993.248 807.5,989.5 Z"/></g>
<g><path style="opacity:1" fill="#de4728" d="M 824.5,1031.5 C 835.198,1031.35 839.365,1036.35 837,1046.5C 835.457,1048.38 833.624,1049.88 831.5,1051C 813.349,1055.58 795.182,1060.08 777,1064.5C 768.806,1062.44 766.139,1057.44 769,1049.5C 770.543,1047.62 772.376,1046.12 774.5,1045C 791.272,1040.48 807.939,1035.98 824.5,1031.5 Z"/></g>
<g><path style="opacity:1" fill="#2e2726" d="M 281.5,1091.5 C 283.399,1076.91 286.399,1062.58 290.5,1048.5C 358.488,1044.53 426.488,1044.7 494.5,1049C 502.901,1051.07 508.401,1056.23 511,1064.5C 512.052,1075.57 507.552,1083.4 497.5,1088C 473.188,1087.25 448.854,1086.58 424.5,1086C 389.833,1085.33 355.167,1085.33 320.5,1086C 307.28,1086.55 294.28,1088.38 281.5,1091.5 Z"/></g>
<g><path style="opacity:0.996" fill="#2e2725" d="M 316.5,1128.5 C 375.215,1127.81 433.882,1128.97 492.5,1132C 499.491,1133.91 504.657,1138.08 508,1144.5C 510.966,1157.73 506.133,1166.9 493.5,1172C 465.582,1170.23 437.582,1169.07 409.5,1168.5C 376.922,1158.65 345.922,1145.31 316.5,1128.5 Z"/></g>
<g><path style="opacity:1" fill="#f5e3a3" d="M 738.5,1167.5 C 754.167,1167.5 769.833,1167.5 785.5,1167.5C 770.342,1168.5 755.009,1168.83 739.5,1168.5C 739.5,1169.83 739.5,1171.17 739.5,1172.5C 738.549,1171.08 738.216,1169.41 738.5,1167.5 Z"/></g>
<g><path style="opacity:0.964" fill="#f6ca31" d="M 785.5,1167.5 C 787.833,1167.5 790.167,1167.5 792.5,1167.5C 775.549,1173.82 758.216,1179.15 740.5,1183.5C 739.886,1179.86 739.552,1176.2 739.5,1172.5C 739.5,1171.17 739.5,1169.83 739.5,1168.5C 755.009,1168.83 770.342,1168.5 785.5,1167.5 Z"/></g>
</svg>
